<?xml version="1.0" encoding="utf-8"?>
<!-- Svg Vector Icons : http://www.onlinewebfonts.com/icon -->
<!DOCTYPE svg PUBLIC "-//W3C//DTD SVG 1.1//EN" "http://www.w3.org/Graphics/SVG/1.1/DTD/svg11.dtd">
<svg version="1.1" xmlns="http://www.w3.org/2000/svg" xmlns:xlink="http://www.w3.org/1999/xlink" x="0px" y="0px"
     viewBox="0 0 1000 1000" enable-background="new 0 0 1000 1000" xml:space="preserve">
<metadata> Svg Vector Icons : http://www.onlinewebfonts.com/icon </metadata>
    <g><g transform="translate(0.000000,511.000000) scale(0.100000,-0.100000)"><path d="M1581.2,3561.3c-474.9-103.3-698.8-465-698.8-1131.8c0-428.1,108.3-723.4,356.8-976.8C1812.5,872,2708.1,1216.5,2892.6,2085c61.5,292.8,34.4,698.8-64,962c-59.1,155-236.2,361.7-371.5,430.6C2235.7,3590.8,1874,3625.3,1581.2,3561.3z" fill="#fff"/><path
            d="M7786.5,3561.3c-204.2-44.3-324.8-110.7-450.3-246c-130.4-142.7-194.4-282.9-238.6-526.5c-137.8-770.1,174.7-1422.2,762.7-1589.5c511.8-147.6,1048.1,214.1,1208.1,814.4c83.7,302.6,36.9,873.5-86.1,1119.5C8790.4,3507.2,8317.9,3677,7786.5,3561.3z" fill="#fff"/><path
            d="M4661.7,3266.1c-447.8-98.4-760.3-410.9-883.3-885.8c-56.6-219-86.1-649.6-59-907.9C3805.5,557.1,4509.1-92.5,5279.3,30.6c622.5,98.4,1109.7,679.1,1190.9,1419.7c24.6,238.7-4.9,720.9-59.1,930c-125.5,482.3-435.5,789.8-895.6,888.2C5313.7,3310.4,4861,3310.4,4661.7,3266.1z" fill="#fff"/><path
            d="M1293.3,1071.3C358.3,884.3,100,544.8,100-483.7v-314.9l105.8-96c248.5-231.3,600.4-361.7,1149-428.1c231.3-27.1,885.8-29.5,1055.5-4.9c105.8,17.2,108.3,19.7,140.3,152.6c19.7,73.8,81.2,228.8,135.3,339.5c162.4,329.7,435.5,570.8,836.6,730.8l162.4,64l-32,172.2c-103.3,546.2-418.3,802.1-1156.4,942.4c-164.8,29.5-177.1,29.5-204.2-14.8c-49.2-78.7-221.4-142.7-391.2-142.7c-174.7,0-290.3,39.4-376.5,130.4C1465.6,1108.2,1465.6,1108.2,1293.3,1071.3z" fill="#fff"/><path
            d="M7451.8,1064c-659.4-135.3-939.9-339.5-1080.1-789.8c-76.3-243.6-71.4-253.4,120.5-315c661.9-219,996.5-563.4,1161.3-1200.7l27.1-105.8h378.9c469.9,0,873.5,51.7,1173.6,150.1c263.3,86.1,403.5,159.9,556.1,302.6L9900-793.7l-14.7,430.6c-14.8,455.2-46.8,627.4-152.6,839c-157.5,307.6-430.6,470-994,585.6l-221.4,44.3l-56.6-61.5c-83.6-88.6-194.4-127.9-369.1-127.9c-169.8,0-334.6,61.5-391.2,142.7C7665.9,1105.8,7663.5,1105.8,7451.8,1064z" fill="#fff"/><path
            d="M4159.8-131.8c-831.6-191.9-1217.9-469.9-1380.3-991.6c-103.3-337.1-182.1-1277-123-1461.5c61.5-184.5,408.4-433,789.8-570.8c482.3-169.8,868.5-221.4,1673.1-221.4c565.9,2.5,693.8,9.8,971.9,59.1c371.5,64,772.6,191.9,989.1,312.5c204.2,113.2,415.8,310,450.3,418.3c36.9,105.8,14.7,713.5-39.4,1075.2c-118.1,836.6-497,1178.6-1542.7,1397.5l-260.8,54.1L5577-161.3c-127.9-118.1-255.9-159.9-482.2-159.9c-223.9,0-356.8,44.3-479.8,157.5c-56.6,51.7-125.5,96-150.1,93.5C4437.8-70.3,4302.5-97.4,4159.8-131.8z" fill="#fff"/></g></g>
</svg>