<?xml version="1.0" encoding="utf-8"?>
<!-- Svg Vector Icons : http://www.onlinewebfonts.com/icon -->
<!DOCTYPE svg PUBLIC "-//W3C//DTD SVG 1.1//EN" "http://www.w3.org/Graphics/SVG/1.1/DTD/svg11.dtd">
<svg version="1.1" xmlns="http://www.w3.org/2000/svg" xmlns:xlink="http://www.w3.org/1999/xlink" x="0px" y="0px" viewBox="0 0 1000 1000" enable-background="new 0 0 1000 1000" xml:space="preserve">
<metadata> Svg Vector Icons : http://www.onlinewebfonts.com/icon </metadata>
<g><path d="M879.5,308.9H604v354.2h109.8c2.5,25.8,15.9,48.9,36.3,66.1c22.6,19.2,53.9,31,88.4,31c34.4,0,65.6-11.8,88.2-31l0.1-0.1c20.4-17.3,33.8-40.4,36.2-66H990V542.8L879.5,308.9z M873.2,684c-8.9,7.5-21.2,12.1-34.7,12.1c-13.6,0-25.9-4.7-34.7-12.2c-8.9-7.5-14.4-17.9-14.4-29.4c0-11.5,5.4-21.9,14.2-29.4l0.1-0.1c8.7-7.4,21.1-12,34.7-12c13.5,0,25.8,4.6,34.7,12.1c8.9,7.5,14.4,17.9,14.4,29.4C887.6,666,882.1,676.5,873.2,684z M716.3,533.4V364.7h110.4L898,533.4H716.3z M10,293.6h418.7v56.5H10V404h418.7v56.5H10v56.1h418.7v56.5H235.9c-18.8-9.6-40.8-15.1-64.3-15.1c-23.4,0-45.4,5.5-64.2,15.1H10v90h37c2.5,25.8,15.9,48.9,36.3,66.1c22.6,19.2,53.9,31,88.4,31c34.4,0,65.6-11.8,88.2-31l0.2-0.1c20.3-17.3,33.7-40.4,36.2-66h281.4V239.7H10V293.6z M206.4,684c-8.9,7.5-21.1,12.1-34.8,12.1c-13.6,0-25.8-4.7-34.7-12.2c-8.9-7.5-14.4-17.9-14.4-29.4c0-11.5,5.5-21.9,14.2-29.4l0.2-0.1c8.8-7.4,21.1-12,34.7-12c13.6,0,25.9,4.6,34.7,12.1c8.9,7.5,14.4,17.9,14.4,29.4C220.7,666,215.2,676.5,206.4,684z"/></g>
</svg>